# xmcd
#
# Track frame offsets:
#	150
#	18166
#	37798
#	58857
#	76875
#	92209
#	104911
#	113965
#	126428
#	151744
#	167695
#	195857
#	212532
#	230273
#	246017
#	262111
#	283936
#	315971
#	333415
#
# Disc length: 4684 seconds
#
# Revision: 1
# Processed by: cddbd v1.5.2PL0 Copyright (c) Steve Scherf et al.
# Submitted via: audiograbber 1.83.01
#
DISCID=fd124a13
DTITLE=Vincenzo Barattin -  FACE THE MUSIC - Blues In My Soul
DYEAR=2018
DGENRE=Blues 
TTITLE0=Harlem Shuffle
TTITLE1=You're Gonna Ruin Me Baby
TTITLE2=Somedays
TTITLE3=It's Your Thing
TTITLE4=LM Girl
TTITLE5=You Must Be Crazy
TTITLE6=Freedom Train
TTITLE7=Ricotta Cake
TTITLE8=You Can't Always Get What You Want
TTITLE9=Runaway Boogie
TTITLE10=Mood Indigo
TTITLE11=It's Only A Paper Moon
TTITLE12=You Send Me
TTITLE13=The Cuckoo
TTITLE14=Crazy With Love
TTITLE15=Misty
TTITLE16=Sweet Little Angel
TTITLE17=After Dark
TTITLE18=Freedom Train (Instrumental)
EXTD=
EXTT0=
EXTT1=
EXTT2=
EXTT3=
EXTT4=
EXTT5=
EXTT6=
EXTT7=
EXTT8=
EXTT9=
EXTT10=
EXTT11=
EXTT12=
EXTT13=
EXTT14=
EXTT15=
EXTT16=
EXTT17=
EXTT18=
PLAYORDER=
